<svg width="20" height="25" viewBox="0 0 20 25" fill="none" xmlns="http://www.w3.org/2000/svg">
<path d="M0 2.08333C0 0.930989 0.638393 0 1.42857 0H18.5714C19.3616 0 20 0.930989 20 2.08333C20 3.23568 19.3616 4.16667 18.5714 4.16667H1.42857C0.638393 4.16667 0 3.23568 0 2.08333ZM0 12.5C0 11.3477 0.638393 10.4167 1.42857 10.4167H18.5714C19.3616 10.4167 20 11.3477 20 12.5C20 13.6523 19.3616 14.5833 18.5714 14.5833H1.42857C0.638393 14.5833 0 13.6523 0 12.5ZM20 22.9167C20 24.069 19.3616 25 18.5714 25H1.42857C0.638393 25 0 24.069 0 22.9167C0 21.7643 0.638393 20.8333 1.42857 20.8333H18.5714C19.3616 20.8333 20 21.7643 20 22.9167Z" fill="black"/>
</svg>
